#!OML:ASF X:\für Bonn\!DataBase\2005_08_11_Bastian_Final\c3d\Bastian.ASF
:FULLY-SPECIFIED
:DEGREES
206
root -21.7943 17.6252 0.25043 121.15 -79.4063 -124.873
lowerback 5.39537 0.354587 4.30716
upperback 3.50913 0.570769 -0.870625
thorax 0.649136 0.328501 -3.34201
lowerneck -7.22631 -6.35402 0.378933
upperneck -12.0265 -8.27525 13.3023
head -2.04476 -4.71102 4.2888
rclavicle 1.54058e-014 -9.54166e-015
rhumerus 50.1467 11.7104 -20.3305
rradius 96.0105
rwrist 4.72726
rhand -20.3287 1.98554
rfingers 7.12502
rthumb 6.02251 -27.9089
lclavicle 1.54058e-014 -9.54166e-015
lhumerus -28.4901 -8.01796 83.8147
lradius 16.5186
lwrist 13.9594
lhand -11.7546 -7.44809
lfingers 7.12502
lthumb 14.2935 22.04
rfemur 7.13686 5.42481 24.1668
rtibia 31.1138
rfoot -11.2508 3.39078
rtoes -24.6629
lfemur -7.34285 6.20787 -12.653
ltibia 28.1388
lfoot -8.93316 -7.65691
ltoes -1.84717
207
root -21.7924 17.6233 0.25422 122.518 -79.3021 -126.244
lowerback 5.31668 0.311027 4.24107
upperback 3.52974 0.505803 -0.818892
thorax 0.70678 0.295879 -3.2475
lowerneck -7.0406 -6.20601 0.255632
upperneck -12.0546 -8.05645 13.2877
head -2.09808 -4.60262 4.32257
rclavicle 1.35174e-014 1.59028e-015
rhumerus 49.6324 13.2001 -19.875
rradius 98.085
rwrist 5.22228
rhand -19.9989 1.98938
rfingers 7.12502
rthumb 6.34086 -27.8957
lclavicle 1.35174e-014 1.59028e-015
lhumerus -28.4071 -8.09238 83.8942
lradius 16.7579
lwrist 14.1589
lhand -11.7966 -7.35929
lfingers 7.12502
lthumb 14.253 22.1316
rfemur 6.91889 5.49344 24.0326
rtibia 31.4315
rfoot -11.2918 3.55168
rtoes -24.4767
lfemur -7.306 6.23481 -12.7281
ltibia 28.1456
lfoot -9.00879 -7.43447
ltoes -1.84031
208
root -21.7892 17.623 0.257918 123.695 -79.189 -127.404
lowerback 5.23072 0.258847 4.2043
upperback 3.54569 0.430601 -0.76621
thorax 0.76344 0.25855 -3.16824
lowerneck -6.89326 -6.05771 0.161013
upperneck -12.0441 -7.84484 13.2369
head -2.13408 -4.4947 4.33397
rclavicle -1.97791e-014 -3.02153e-014
rhumerus 49.1314 14.7893 -19.4241
rradius 100.051
rwrist 5.7637
rhand -19.7178 2.05389
rfingers 7.12502
rthumb 6.61222 -27.8229
lclavicle -1.97791e-014 -3.02153e-014
lhumerus -28.3607 -8.25126 84.0087
lradius 17.0874
lwrist 14.4774
lhand -11.8662 -7.22184
lfingers 7.12502
lthumb 14.186 22.2738
rfemur 6.66727 5.56787 23.9304
rtibia 31.7637
rfoot -11.2792 3.67801
rtoes -24.2438
lfemur -7.31113 6.26395 -12.7778
ltibia 28.1622
lfoot -9.05132 -7.25292
ltoes -1.81907
209
root -21.7859 17.6215 0.260758 124.908 -79.0889 -128.624
lowerback 5.157 0.213085 4.13446
upperback 3.56702 0.362811 -0.722457
thorax 0.819418 0.224368 -3.0802
lowerneck -6.73739 -5.91725 0.105651
upperneck -12.0451 -7.64651 13.1413
head -2.17807 -4.39443 4.32252
rclavicle -1.88845e-015 2.8625e-014
rhumerus 48.603 16.4714 -18.9609
rradius 101.948
rwrist 6.3538
rhand -19.4355 2.14698
rfingers 7.12502
rthumb 6.88478 -27.7211
lclavicle -1.88845e-015 2.8625e-014
lhumerus -28.2775 -8.26647 84.0471
lradius 17.3805
lwrist 14.6851
lhand -11.872 -7.10467
lfingers 7.12502
lthumb 14.1804 22.3913
rfemur 6.42745 5.63579 23.8076
rtibia 32.1171
rfoot -11.2767 3.79924
rtoes -24.0185
lfemur -7.28888 6.26944 -12.8477
ltibia 28.1814
lfoot -9.12652 -7.0548
ltoes -1.75369
210
root -21.7808 17.6207 0.263085 125.933 -78.9842 -129.635
lowerback 5.0704 0.155993 4.06231
upperback 3.59316 0.279156 -0.656581
thorax 0.886317 0.182172 -2.96746
lowerneck -6.60815 -5.77347 0.0159069
upperneck -12.0545 -7.44286 13.0582
head -2.21875 -4.29022 4.3208
rclavicle -9.0447e-015 3.18055e-014
rhumerus 48.1505 18.2347 -18.4395
rradius 103.725
rwrist 6.94432
rhand -19.2218 2.30207
rfingers 7.12502
rthumb 7.09105 -27.5591
lclavicle -9.0447e-015 3.18055e-014
lhumerus -28.2199 -8.31817 84.1248
lradius 17.773
lwrist 15.0025
lhand -11.8802 -6.93495
lfingers 7.12502
lthumb 14.1724 22.5616
rfemur 6.15627 5.70761 23.7173
rtibia 32.4844
rfoot -11.2189 3.90513
rtoes -23.9332
lfemur -7.30339 6.26854 -12.8971
ltibia 28.201
lfoot -9.17665 -6.87051
ltoes -1.7508
211
root -21.775 17.6193 0.264159 126.882 -78.9115 -130.584
lowerback 4.99571 0.0887488 3.9694
upperback 3.61596 0.181986 -0.611379
thorax 0.942414 0.132738 -2.86418
lowerneck -6.46915 -5.62669 -0.0287373
upperneck -12.0394 -7.23959 12.9462
head -2.25567 -4.18601 4.29938
rclavicle -7.15625e-015 3.97569e-014
rhumerus 47.6806 20.1145 -17.9475
rradius 105.396
rwrist 7.5149
rhand -18.9741 2.50539
rfingers 7.12502
rthumb 7.3301 -27.3476
lclavicle -7.15625e-015 3.97569e-014
lhumerus -28.1601 -8.2911 84.1367
lradius 18.1336
lwrist 15.2022
lhand -11.8966 -6.82933
lfingers 7.12502
lthumb 14.1566 22.6683
rfemur 5.89531 5.76998 23.6145
rtibia 32.8625
rfoot -11.16 3.97375
rtoes -23.8691
lfemur -7.31215 6.34521 -12.9556
ltibia 28.2283
lfoot -9.21958 -6.77492
ltoes -1.7271
